<svg xmlns="http://www.w3.org/2000/svg" width="55.235" height="42.488" viewBox="0 0 55.235 42.488">
  <g id="Group_31" data-name="Group 31" transform="translate(-11568 -1200)">
    <g id="Union_1" data-name="Union 1" transform="translate(11568 1200)" fill="none">
      <path d="M34.53,31.158H7a7,7,0,0,1-7-7V7A7,7,0,0,1,7,0H48.235a7,7,0,0,1,7,7V24.158a7,7,0,0,1-7,7H47.45L40.99,42.488Z" stroke="none"/>
      <path d="M 40.9898681640625 32.39366912841797 L 44.54555511474609 26.15800476074219 L 48.23460006713867 26.15800476074219 C 49.33752059936523 26.15800476074219 50.23480224609375 25.26072120666504 50.23480224609375 24.15780448913574 L 50.23480224609375 7.000204086303711 C 50.23480224609375 5.897286415100098 49.33752059936523 5.000003814697266 48.23460006713867 5.000003814697266 L 7.000201225280762 5.000003814697266 C 5.897283554077148 5.000003814697266 5.000000953674316 5.897286415100098 5.000000953674316 7.000204086303711 L 5.000000953674316 24.15780448913574 C 5.000000953674316 25.26072120666504 5.897283554077148 26.15800476074219 7.000201225280762 26.15800476074219 L 37.43462371826172 26.15800476074219 L 40.9898681640625 32.39366912841797 M 40.98960113525391 42.48809814453125 L 34.52977752685547 31.15800476074219 L 7.000201225280762 31.15800476074219 C 3.133801221847534 31.15800476074219 1.123046899920155e-06 28.02420425415039 1.123046899920155e-06 24.15780448913574 L 1.123046899920155e-06 7.000204086303711 C 1.123046899920155e-06 3.133803844451904 3.133801221847534 3.920790732081514e-06 7.000201225280762 3.920790732081514e-06 L 48.23460006713867 3.920790732081514e-06 C 52.10100173950195 3.920790732081514e-06 55.23480224609375 3.133803844451904 55.23480224609375 7.000204086303711 L 55.23480224609375 24.15780448913574 C 55.23480224609375 28.02420425415039 52.10100173950195 31.15800476074219 48.23460006713867 31.15800476074219 L 47.45022583007812 31.15800476074219 L 40.98960113525391 42.48809814453125 Z" stroke="none" fill="#fff"/>
    </g>
    <path id="Union_7" data-name="Union 7" d="M5.055,8.111l-3.132,1.9.739-3.633L0,3.867l3.5-.383L4.973,0,6.445,3.473l3.6.394L7.438,6.326l.749,3.685Z" transform="translate(11575.724 1210.574)" fill="#fff"/>
    <path id="Union_8" data-name="Union 8" d="M5.055,8.111l-3.132,1.9.739-3.633L0,3.867l3.5-.383L4.973,0,6.445,3.473l3.6.394L7.438,6.326l.749,3.685Z" transform="translate(11590.595 1210.574)" fill="#fff"/>
    <path id="Union_9" data-name="Union 9" d="M5.055,8.111l-3.132,1.9.739-3.633L0,3.867l3.5-.383L4.973,0,6.445,3.473l3.6.394L7.438,6.326l.749,3.685Z" transform="translate(11605.466 1210.574)" fill="#fff"/>
  </g>
</svg>
